<svg width="23" height="26" viewBox="0 0 23 26" fill="none" xmlns="http://www.w3.org/2000/svg">
<path d="M2.57677 25.6666C1.90326 25.6666 1.33317 25.4333 0.866504 24.9666C0.399837 24.5 0.166504 23.9299 0.166504 23.2564V5.4103C0.166504 4.73679 0.399837 4.1667 0.866504 3.70003C1.33317 3.23337 1.90326 3.00003 2.57677 3.00003H4.42294V1.20514C4.42294 0.912846 4.5208 0.668835 4.71654 0.473102C4.91225 0.277391 5.15626 0.179535 5.44857 0.179535C5.74086 0.179535 5.98487 0.277391 6.1806 0.473102C6.37632 0.668835 6.47417 0.912846 6.47417 1.20514V3.00003H16.5767V1.1795C16.5767 0.895747 16.6724 0.658146 16.8639 0.466701C17.0553 0.275257 17.2929 0.179535 17.5767 0.179535C17.8604 0.179535 18.098 0.275257 18.2895 0.466701C18.4809 0.658146 18.5767 0.895747 18.5767 1.1795V3.00003H20.4228C21.0963 3.00003 21.6664 3.23337 22.1331 3.70003C22.5998 4.1667 22.8331 4.73679 22.8331 5.4103V23.2564C22.8331 23.9299 22.5998 24.5 22.1331 24.9666C21.6664 25.4333 21.0963 25.6666 20.4228 25.6666H2.57677ZM2.57677 23.6667H20.4228C20.5254 23.6667 20.6194 23.6239 20.7049 23.5385C20.7904 23.453 20.8331 23.3589 20.8331 23.2564V10.7436H2.16647V23.2564C2.16647 23.3589 2.2092 23.453 2.29467 23.5385C2.38016 23.6239 2.47419 23.6667 2.57677 23.6667ZM2.16647 8.74367H20.8331V5.4103C20.8331 5.30772 20.7904 5.21369 20.7049 5.1282C20.6194 5.04274 20.5254 5 20.4228 5H2.57677C2.47419 5 2.38016 5.04274 2.29467 5.1282C2.2092 5.21369 2.16647 5.30772 2.16647 5.4103V8.74367Z" fill="#1C1B1F"/>
</svg>
