<svg width="28" height="28" viewBox="0 0 28 28" fill="none" xmlns="http://www.w3.org/2000/svg">
<mask id="mask0_10_2069" style="mask-type:alpha" maskUnits="userSpaceOnUse" x="0" y="0" width="28" height="28">
<rect width="28" height="28" fill="#D9D9D9"/>
</mask>
<g mask="url(#mask0_10_2069)">
<path d="M4.95825 20.5737C4.71034 20.5737 4.50252 20.4898 4.33481 20.322C4.16711 20.1542 4.08325 19.9463 4.08325 19.6983C4.08325 19.4503 4.16711 19.2425 4.33481 19.075C4.50252 18.9075 4.71034 18.8237 4.95825 18.8237H23.0415C23.2894 18.8237 23.4973 18.9076 23.665 19.0754C23.8327 19.2431 23.9165 19.451 23.9165 19.6991C23.9165 19.9471 23.8327 20.1549 23.665 20.3224C23.4973 20.4899 23.2894 20.5737 23.0415 20.5737H4.95825ZM4.95825 14.8749C4.71034 14.8749 4.50252 14.7911 4.33481 14.6233C4.16711 14.4555 4.08325 14.2476 4.08325 13.9996C4.08325 13.7516 4.16711 13.5438 4.33481 13.3763C4.50252 13.2088 4.71034 13.125 4.95825 13.125H23.0415C23.2894 13.125 23.4973 13.2089 23.665 13.3766C23.8327 13.5444 23.9165 13.7523 23.9165 14.0003C23.9165 14.2484 23.8327 14.4562 23.665 14.6237C23.4973 14.7912 23.2894 14.8749 23.0415 14.8749H4.95825ZM4.95825 9.17624C4.71034 9.17624 4.50252 9.09235 4.33481 8.92456C4.16711 8.75679 4.08325 8.54889 4.08325 8.30086C4.08325 8.05285 4.16711 7.84508 4.33481 7.67757C4.50252 7.51004 4.71034 7.42627 4.95825 7.42627H23.0415C23.2894 7.42627 23.4973 7.51016 23.665 7.67795C23.8327 7.84573 23.9165 8.05363 23.9165 8.30165C23.9165 8.54968 23.8327 8.75745 23.665 8.92497C23.4973 9.09248 23.2894 9.17624 23.0415 9.17624H4.95825Z" fill="#1C1B1F"/>
</g>
</svg>
