<svg width="28" height="28" viewBox="0 0 28 28" fill="none" xmlns="http://www.w3.org/2000/svg">
<mask id="mask0_11_2081" style="mask-type:alpha" maskUnits="userSpaceOnUse" x="0" y="0" width="28" height="28">
<rect width="28" height="28" fill="#D9D9D9"/>
</mask>
<g mask="url(#mask0_11_2081)">
<path fill-rule="evenodd" clip-rule="evenodd" d="M12.5091 24.6881C12.9212 25.1011 13.4175 25.3076 13.998 25.3076C14.5785 25.3076 15.0755 25.1016 15.4888 24.6895C15.9022 24.2775 16.1089 23.7805 16.1089 23.1987H11.891C11.891 23.7787 12.0971 24.2751 12.5091 24.6881ZM5.50156 21.7804C5.66927 21.9481 5.87708 22.032 6.125 22.032H21.8749C22.1229 22.032 22.3307 21.9483 22.4984 21.7808C22.6661 21.6132 22.7499 21.4055 22.7499 21.1574C22.7499 20.9094 22.6661 20.7015 22.4984 20.5337C22.3307 20.366 22.1229 20.2821 21.8749 20.2821H20.641V13.2821C20.3373 13.2896 20.0367 13.2664 19.7391 13.2125C19.4414 13.1587 19.1587 13.0839 18.891 12.9882V20.2821H9.10892V11.5769C9.10892 10.2263 9.58644 9.07343 10.5415 8.11842C11.4965 7.16338 12.6493 6.68587 14 6.68587C14.146 6.68587 14.282 6.69484 14.4082 6.71279C14.5343 6.73074 14.6637 6.75168 14.7964 6.77561C14.8219 6.39122 14.8907 6.02028 15.0028 5.66282C15.115 5.30533 15.2668 4.95383 15.4583 4.60833V4.37502C15.4583 3.96993 15.3162 3.62561 15.032 3.34206C14.7478 3.05848 14.4034 2.91669 13.9987 2.91669C13.5939 2.91669 13.2499 3.05848 12.9666 3.34206C12.6833 3.62561 12.5417 3.96993 12.5417 4.37502V5.10194C11.0235 5.43847 9.78018 6.20951 8.81169 7.41506C7.84322 8.62062 7.35898 10.0079 7.35898 11.5769V20.2821H6.125C5.87708 20.2821 5.66927 20.3658 5.50156 20.5334C5.33385 20.7009 5.25 20.9086 5.25 21.1567C5.25 21.4047 5.33385 21.6126 5.50156 21.7804Z" fill="#1C1B1F"/>
<path d="M20.3955 10.7356C19.5046 10.7356 18.747 10.4238 18.1225 9.80023C17.4981 9.17664 17.1858 8.41943 17.1858 7.52858C17.1858 6.63775 17.4976 5.88011 18.1212 5.25565C18.7448 4.63119 19.502 4.31896 20.3928 4.31896C21.2837 4.31896 22.0413 4.63075 22.6658 5.25434C23.2902 5.87792 23.6025 6.63513 23.6025 7.52596C23.6025 8.41678 23.2907 9.17442 22.6671 9.79888C22.0435 10.4234 21.2863 10.7356 20.3955 10.7356Z" fill="#5140B1"/>
</g>
</svg>
