<svg width="24" height="24" viewBox="0 0 24 24" fill="none" xmlns="http://www.w3.org/2000/svg">
<mask id="mask0_10_1963" style="mask-type:alpha" maskUnits="userSpaceOnUse" x="0" y="0" width="24" height="24">
<rect width="24" height="24" fill="#D9D9D9"/>
</mask>
<g mask="url(#mask0_10_1963)">
<path d="M21.5 6.30772V17.6923C21.5 18.1974 21.325 18.625 20.975 18.975C20.625 19.325 20.1974 19.5 19.6923 19.5H4.3077C3.80257 19.5 3.375 19.325 3.025 18.975C2.675 18.625 2.5 18.1974 2.5 17.6923V6.30772C2.5 5.80259 2.675 5.37502 3.025 5.02502C3.375 4.67502 3.80257 4.50002 4.3077 4.50002H19.6923C20.1974 4.50002 20.625 4.67502 20.975 5.02502C21.325 5.37502 21.5 5.80259 21.5 6.30772ZM3.99998 8.40387H20V6.30772C20 6.23079 19.9679 6.16027 19.9038 6.09615C19.8397 6.03205 19.7692 6 19.6923 6H4.3077C4.23077 6 4.16024 6.03205 4.09613 6.09615C4.03202 6.16027 3.99998 6.23079 3.99998 6.30772V8.40387ZM3.99998 11.5961V17.6923C3.99998 17.7692 4.03202 17.8397 4.09613 17.9038C4.16024 17.9679 4.23077 18 4.3077 18H19.6923C19.7692 18 19.8397 17.9679 19.9038 17.9038C19.9679 17.8397 20 17.7692 20 17.6923V11.5961H3.99998Z" fill="white"/>
</g>
</svg>
