<svg width="24" height="24" viewBox="0 0 24 24" fill="none" xmlns="http://www.w3.org/2000/svg">
<path d="M2.66647 20.0565C3.86647 18.8787 5.26091 17.9509 6.8498 17.2731C8.43869 16.5953 10.1554 16.2565 11.9998 16.2565C13.8442 16.2565 15.5609 16.5953 17.1498 17.2731C18.7387 17.9509 20.1331 18.8787 21.3331 20.0565V3.07699C21.3331 2.97441 21.2904 2.88037 21.2049 2.79489C21.1194 2.70942 21.0254 2.66668 20.9228 2.66668H3.07677C2.97419 2.66668 2.88016 2.70942 2.79467 2.79489C2.7092 2.88037 2.66647 2.97441 2.66647 3.07699V20.0565ZM11.9998 13.3847C13.2032 13.3847 14.2263 12.9633 15.069 12.1206C15.9117 11.2778 16.3331 10.2547 16.3331 9.05132C16.3331 7.84792 15.9117 6.82485 15.069 5.98212C14.2263 5.13939 13.2032 4.71802 11.9998 4.71802C10.7964 4.71802 9.77332 5.13939 8.9306 5.98212C8.08787 6.82485 7.6665 7.84792 7.6665 9.05132C7.6665 10.2547 8.08787 11.2778 8.9306 12.1206C9.77332 12.9633 10.7964 13.3847 11.9998 13.3847ZM3.07677 23.3333C2.40326 23.3333 1.83317 23.1 1.3665 22.6333C0.899837 22.1667 0.666504 21.5966 0.666504 20.9231V3.07699C0.666504 2.40347 0.899837 1.83338 1.3665 1.36672C1.83317 0.900051 2.40326 0.666718 3.07677 0.666718H20.9228C21.5963 0.666718 22.1664 0.900051 22.6331 1.36672C23.0998 1.83338 23.3331 2.40347 23.3331 3.07699V20.9231C23.3331 21.5966 23.0998 22.1667 22.6331 22.6333C22.1664 23.1 21.5963 23.3333 20.9228 23.3333H3.07677ZM4.5895 21.3334H19.4101V21.0513C18.3571 20.1111 17.202 19.4103 15.9447 18.9487C14.6874 18.4872 13.3725 18.2564 11.9998 18.2564C10.6442 18.2564 9.33569 18.485 8.07414 18.9423C6.81258 19.3996 5.65104 20.094 4.5895 21.0257V21.3334ZM11.9998 11.3847C11.3588 11.3847 10.8096 11.1561 10.3523 10.6988C9.89507 10.2415 9.66644 9.69236 9.66644 9.05132C9.66644 8.4103 9.89507 7.86115 10.3523 7.40389C10.8096 6.94662 11.3588 6.71799 11.9998 6.71799C12.6408 6.71799 13.19 6.94662 13.6473 7.40389C14.1045 7.86115 14.3332 8.4103 14.3332 9.05132C14.3332 9.69236 14.1045 10.2415 13.6473 10.6988C13.19 11.1561 12.6408 11.3847 11.9998 11.3847Z" fill="#1C1B1F"/>
</svg>
