<svg width="24" height="24" viewBox="0 0 24 24" fill="none" xmlns="http://www.w3.org/2000/svg">
<mask id="mask0_10_1957" style="mask-type:alpha" maskUnits="userSpaceOnUse" x="0" y="0" width="24" height="24">
<rect width="24" height="24" fill="#D9D9D9"/>
</mask>
<g mask="url(#mask0_10_1957)">
<path d="M7.99998 8.90385C8.25126 8.90385 8.46472 8.81602 8.64035 8.64037C8.816 8.46474 8.90383 8.25128 8.90383 8C8.90383 7.74872 8.816 7.53526 8.64035 7.35962C8.46472 7.18397 8.25126 7.09615 7.99998 7.09615C7.74869 7.09615 7.53523 7.18397 7.3596 7.35962C7.18395 7.53526 7.09613 7.74872 7.09613 8C7.09613 8.25128 7.18395 8.46474 7.3596 8.64037C7.53523 8.81602 7.74869 8.90385 7.99998 8.90385ZM7.99998 12.9038C8.25126 12.9038 8.46472 12.816 8.64035 12.6404C8.816 12.4647 8.90383 12.2513 8.90383 12C8.90383 11.7487 8.816 11.5353 8.64035 11.3596C8.46472 11.184 8.25126 11.0961 7.99998 11.0961C7.74869 11.0961 7.53523 11.184 7.3596 11.3596C7.18395 11.5353 7.09613 11.7487 7.09613 12C7.09613 12.2513 7.18395 12.4647 7.3596 12.6404C7.53523 12.816 7.74869 12.9038 7.99998 12.9038ZM7.99998 16.9038C8.25126 16.9038 8.46472 16.816 8.64035 16.6404C8.816 16.4647 8.90383 16.2513 8.90383 16C8.90383 15.7487 8.816 15.5353 8.64035 15.3596C8.46472 15.184 8.25126 15.0961 7.99998 15.0961C7.74869 15.0961 7.53523 15.184 7.3596 15.3596C7.18395 15.5353 7.09613 15.7487 7.09613 16C7.09613 16.2513 7.18395 16.4647 7.3596 16.6404C7.53523 16.816 7.74869 16.9038 7.99998 16.9038ZM5.3077 20.5C4.80257 20.5 4.375 20.325 4.025 19.975C3.675 19.625 3.5 19.1974 3.5 18.6923V5.30772C3.5 4.80259 3.675 4.37502 4.025 4.02502C4.375 3.67502 4.80257 3.50002 5.3077 3.50002H15.0404C15.2814 3.50002 15.5131 3.54682 15.7355 3.64042C15.958 3.73401 16.1513 3.86285 16.3154 4.02695L19.973 7.68462C20.1371 7.84872 20.266 8.042 20.3596 8.26445C20.4531 8.48688 20.5 8.71861 20.5 8.95962V18.6923C20.5 19.1974 20.325 19.625 19.975 19.975C19.625 20.325 19.1974 20.5 18.6923 20.5H5.3077ZM5.3077 19H18.6923C18.782 19 18.8557 18.9711 18.9134 18.9134C18.9711 18.8557 19 18.782 19 18.6923V9H15.9038C15.6461 9 15.4311 8.91378 15.2586 8.74135C15.0862 8.56892 15 8.35385 15 8.09615V5H5.3077C5.21795 5 5.14423 5.02885 5.08653 5.08655C5.02883 5.14425 4.99997 5.21797 4.99997 5.30772V18.6923C4.99997 18.782 5.02883 18.8557 5.08653 18.9134C5.14423 18.9711 5.21795 19 5.3077 19Z" fill="white"/>
</g>
</svg>
